<mxfile host="app.diagrams.net" modified="2021-09-25T00:53:21.458Z" agent="5.0 (Windows NT 10.0; WOW64) AppleWebKit/537.36 (KHTML, like Gecko) Chrome/93.0.4577.82 Safari/537.36" etag="UMsS-oO_k5gUMLFgMniH" version="15.2.9" type="github">
  <diagram name="Page-1" id="16e2658f-23c8-b752-8be9-c03fbebb8bbe">
    <mxGraphModel dx="483" dy="526" grid="1" gridSize="10" guides="1" tooltips="1" connect="1" arrows="1" fold="1" page="1" pageScale="1" pageWidth="1100" pageHeight="850" background="none" math="1" shadow="0">
      <root>
        <mxCell id="0" />
        <mxCell id="1" parent="0" />
        <mxCell id="1OpYOnDRb_VouS4LxPsY-4" value="" style="verticalLabelPosition=bottom;verticalAlign=top;html=1;shape=mxgraph.basic.rect;fillColor2=none;strokeWidth=1;size=20;indent=5;" parent="1" vertex="1">
          <mxGeometry x="240" y="240" width="400" height="280" as="geometry" />
        </mxCell>
        <mxCell id="1OpYOnDRb_VouS4LxPsY-9" value="" style="shape=partialRectangle;whiteSpace=wrap;html=1;right=0;top=0;bottom=0;fillColor=none;routingCenterX=-0.5;" parent="1" vertex="1">
          <mxGeometry x="320" y="460" width="120" height="60" as="geometry" />
        </mxCell>
        <mxCell id="1OpYOnDRb_VouS4LxPsY-10" value="" style="shape=partialRectangle;whiteSpace=wrap;html=1;right=0;top=0;bottom=0;fillColor=none;routingCenterX=-0.5;" parent="1" vertex="1">
          <mxGeometry x="400" y="460" width="120" height="60" as="geometry" />
        </mxCell>
        <mxCell id="1OpYOnDRb_VouS4LxPsY-11" value="" style="shape=partialRectangle;whiteSpace=wrap;html=1;right=0;top=0;bottom=0;fillColor=none;routingCenterX=-0.5;" parent="1" vertex="1">
          <mxGeometry x="480" y="460" width="120" height="60" as="geometry" />
        </mxCell>
        <mxCell id="1OpYOnDRb_VouS4LxPsY-12" value="" style="shape=partialRectangle;whiteSpace=wrap;html=1;right=0;top=0;bottom=0;fillColor=none;routingCenterX=-0.5;" parent="1" vertex="1">
          <mxGeometry x="560" y="460" width="120" height="60" as="geometry" />
        </mxCell>
        <mxCell id="1OpYOnDRb_VouS4LxPsY-14" value="" style="shape=partialRectangle;whiteSpace=wrap;html=1;top=0;bottom=0;fillColor=none;" parent="1" vertex="1">
          <mxGeometry x="280" y="240" width="120" height="60" as="geometry" />
        </mxCell>
        <mxCell id="1OpYOnDRb_VouS4LxPsY-15" value="" style="shape=partialRectangle;whiteSpace=wrap;html=1;top=0;bottom=0;fillColor=none;" parent="1" vertex="1">
          <mxGeometry x="320" y="240" width="120" height="60" as="geometry" />
        </mxCell>
        <mxCell id="1OpYOnDRb_VouS4LxPsY-16" value="" style="shape=partialRectangle;whiteSpace=wrap;html=1;top=0;bottom=0;fillColor=none;" parent="1" vertex="1">
          <mxGeometry x="360" y="240" width="120" height="60" as="geometry" />
        </mxCell>
        <mxCell id="1OpYOnDRb_VouS4LxPsY-17" value="" style="shape=partialRectangle;whiteSpace=wrap;html=1;top=0;bottom=0;fillColor=none;" parent="1" vertex="1">
          <mxGeometry x="480" y="240" width="40" height="60" as="geometry" />
        </mxCell>
        <mxCell id="1OpYOnDRb_VouS4LxPsY-18" value="" style="shape=partialRectangle;whiteSpace=wrap;html=1;top=0;bottom=0;fillColor=none;" parent="1" vertex="1">
          <mxGeometry x="520" y="240" width="120" height="60" as="geometry" />
        </mxCell>
        <mxCell id="1OpYOnDRb_VouS4LxPsY-19" value="" style="shape=partialRectangle;whiteSpace=wrap;html=1;top=0;bottom=0;fillColor=none;" parent="1" vertex="1">
          <mxGeometry x="560" y="240" width="40" height="60" as="geometry" />
        </mxCell>
        <mxCell id="1OpYOnDRb_VouS4LxPsY-3" value="" style="verticalLabelPosition=bottom;verticalAlign=top;html=1;shape=mxgraph.basic.rect;fillColor2=none;strokeWidth=1;size=20;indent=5;" parent="1" vertex="1">
          <mxGeometry x="240" y="280" width="400" height="200" as="geometry" />
        </mxCell>
        <mxCell id="5ShauNuT3ry20VdbrwSz-2" value="&lt;font style=&quot;font-size: 24px&quot;&gt;+&lt;/font&gt;" style="text;html=1;align=center;verticalAlign=middle;resizable=0;points=[];autosize=1;strokeColor=none;fillColor=none;" vertex="1" parent="1">
          <mxGeometry x="245" y="260" width="30" height="20" as="geometry" />
        </mxCell>
        <mxCell id="5ShauNuT3ry20VdbrwSz-3" value="" style="ellipse;whiteSpace=wrap;html=1;aspect=fixed;" vertex="1" parent="1">
          <mxGeometry x="255" y="247" width="10" height="10" as="geometry" />
        </mxCell>
        <mxCell id="5ShauNuT3ry20VdbrwSz-4" value="&lt;span style=&quot;font-size: 24px&quot;&gt;-&lt;/span&gt;" style="text;html=1;align=center;verticalAlign=middle;resizable=0;points=[];autosize=1;strokeColor=none;fillColor=none;" vertex="1" parent="1">
          <mxGeometry x="290" y="260" width="20" height="20" as="geometry" />
        </mxCell>
        <mxCell id="5ShauNuT3ry20VdbrwSz-5" value="" style="ellipse;whiteSpace=wrap;html=1;aspect=fixed;" vertex="1" parent="1">
          <mxGeometry x="295" y="247" width="10" height="10" as="geometry" />
        </mxCell>
        <mxCell id="5ShauNuT3ry20VdbrwSz-6" value="&lt;font style=&quot;font-size: 14px&quot;&gt;I0.0&lt;/font&gt;" style="text;html=1;align=center;verticalAlign=middle;resizable=0;points=[];autosize=1;strokeColor=none;fillColor=none;" vertex="1" parent="1">
          <mxGeometry x="320" y="260" width="40" height="20" as="geometry" />
        </mxCell>
        <mxCell id="5ShauNuT3ry20VdbrwSz-7" value="" style="ellipse;whiteSpace=wrap;html=1;aspect=fixed;" vertex="1" parent="1">
          <mxGeometry x="334" y="247" width="10" height="10" as="geometry" />
        </mxCell>
        <mxCell id="5ShauNuT3ry20VdbrwSz-15" value="&lt;span style=&quot;font-size: 14px&quot;&gt;I0.1&lt;/span&gt;" style="text;html=1;align=center;verticalAlign=middle;resizable=0;points=[];autosize=1;strokeColor=none;fillColor=none;" vertex="1" parent="1">
          <mxGeometry x="360" y="260" width="40" height="20" as="geometry" />
        </mxCell>
        <mxCell id="5ShauNuT3ry20VdbrwSz-16" value="" style="ellipse;whiteSpace=wrap;html=1;aspect=fixed;" vertex="1" parent="1">
          <mxGeometry x="375" y="247" width="10" height="10" as="geometry" />
        </mxCell>
        <mxCell id="5ShauNuT3ry20VdbrwSz-17" value="&lt;font style=&quot;font-size: 14px&quot;&gt;I0.2&lt;/font&gt;" style="text;html=1;align=center;verticalAlign=middle;resizable=0;points=[];autosize=1;strokeColor=none;fillColor=none;" vertex="1" parent="1">
          <mxGeometry x="400" y="260" width="40" height="20" as="geometry" />
        </mxCell>
        <mxCell id="5ShauNuT3ry20VdbrwSz-18" value="" style="ellipse;whiteSpace=wrap;html=1;aspect=fixed;" vertex="1" parent="1">
          <mxGeometry x="415" y="247" width="10" height="10" as="geometry" />
        </mxCell>
        <mxCell id="5ShauNuT3ry20VdbrwSz-19" value="&lt;font style=&quot;font-size: 14px&quot;&gt;I0.3&lt;/font&gt;" style="text;html=1;align=center;verticalAlign=middle;resizable=0;points=[];autosize=1;strokeColor=none;fillColor=none;" vertex="1" parent="1">
          <mxGeometry x="440" y="260" width="40" height="20" as="geometry" />
        </mxCell>
        <mxCell id="5ShauNuT3ry20VdbrwSz-20" value="" style="ellipse;whiteSpace=wrap;html=1;aspect=fixed;" vertex="1" parent="1">
          <mxGeometry x="454" y="247" width="10" height="10" as="geometry" />
        </mxCell>
        <mxCell id="5ShauNuT3ry20VdbrwSz-21" value="&lt;font style=&quot;font-size: 14px&quot;&gt;I0.4&lt;/font&gt;" style="text;html=1;align=center;verticalAlign=middle;resizable=0;points=[];autosize=1;strokeColor=none;fillColor=none;" vertex="1" parent="1">
          <mxGeometry x="480" y="260" width="40" height="20" as="geometry" />
        </mxCell>
        <mxCell id="5ShauNuT3ry20VdbrwSz-22" value="" style="ellipse;whiteSpace=wrap;html=1;aspect=fixed;" vertex="1" parent="1">
          <mxGeometry x="495" y="247" width="10" height="10" as="geometry" />
        </mxCell>
        <mxCell id="5ShauNuT3ry20VdbrwSz-23" value="&lt;font style=&quot;font-size: 14px&quot;&gt;I0.5&lt;/font&gt;" style="text;html=1;align=center;verticalAlign=middle;resizable=0;points=[];autosize=1;strokeColor=none;fillColor=none;" vertex="1" parent="1">
          <mxGeometry x="520" y="260" width="40" height="20" as="geometry" />
        </mxCell>
        <mxCell id="5ShauNuT3ry20VdbrwSz-24" value="" style="ellipse;whiteSpace=wrap;html=1;aspect=fixed;" vertex="1" parent="1">
          <mxGeometry x="535" y="247" width="10" height="10" as="geometry" />
        </mxCell>
        <mxCell id="5ShauNuT3ry20VdbrwSz-25" value="&lt;font style=&quot;font-size: 14px&quot;&gt;I0.6&lt;/font&gt;" style="text;html=1;align=center;verticalAlign=middle;resizable=0;points=[];autosize=1;strokeColor=none;fillColor=none;" vertex="1" parent="1">
          <mxGeometry x="560" y="260" width="40" height="20" as="geometry" />
        </mxCell>
        <mxCell id="5ShauNuT3ry20VdbrwSz-26" value="" style="ellipse;whiteSpace=wrap;html=1;aspect=fixed;" vertex="1" parent="1">
          <mxGeometry x="574" y="247" width="10" height="10" as="geometry" />
        </mxCell>
        <mxCell id="5ShauNuT3ry20VdbrwSz-27" value="&lt;font style=&quot;font-size: 14px&quot;&gt;I0.7&lt;/font&gt;" style="text;html=1;align=center;verticalAlign=middle;resizable=0;points=[];autosize=1;strokeColor=none;fillColor=none;" vertex="1" parent="1">
          <mxGeometry x="600" y="260" width="40" height="20" as="geometry" />
        </mxCell>
        <mxCell id="5ShauNuT3ry20VdbrwSz-28" value="" style="ellipse;whiteSpace=wrap;html=1;aspect=fixed;" vertex="1" parent="1">
          <mxGeometry x="615" y="247" width="10" height="10" as="geometry" />
        </mxCell>
        <mxCell id="5ShauNuT3ry20VdbrwSz-33" value="" style="pointerEvents=1;verticalLabelPosition=bottom;shadow=0;dashed=0;align=center;html=1;verticalAlign=top;shape=mxgraph.electrical.electro-mechanical.make_contact;" vertex="1" parent="1">
          <mxGeometry x="255" y="504" width="45" height="10" as="geometry" />
        </mxCell>
        <mxCell id="5ShauNuT3ry20VdbrwSz-34" value="" style="pointerEvents=1;verticalLabelPosition=bottom;shadow=0;dashed=0;align=center;html=1;verticalAlign=top;shape=mxgraph.electrical.electro-mechanical.make_contact;" vertex="1" parent="1">
          <mxGeometry x="339" y="504" width="45" height="10" as="geometry" />
        </mxCell>
        <mxCell id="5ShauNuT3ry20VdbrwSz-35" value="" style="pointerEvents=1;verticalLabelPosition=bottom;shadow=0;dashed=0;align=center;html=1;verticalAlign=top;shape=mxgraph.electrical.electro-mechanical.make_contact;" vertex="1" parent="1">
          <mxGeometry x="416" y="504" width="45" height="10" as="geometry" />
        </mxCell>
        <mxCell id="5ShauNuT3ry20VdbrwSz-36" value="" style="pointerEvents=1;verticalLabelPosition=bottom;shadow=0;dashed=0;align=center;html=1;verticalAlign=top;shape=mxgraph.electrical.electro-mechanical.make_contact;" vertex="1" parent="1">
          <mxGeometry x="500" y="504" width="45" height="10" as="geometry" />
        </mxCell>
        <mxCell id="5ShauNuT3ry20VdbrwSz-37" value="" style="pointerEvents=1;verticalLabelPosition=bottom;shadow=0;dashed=0;align=center;html=1;verticalAlign=top;shape=mxgraph.electrical.electro-mechanical.make_contact;" vertex="1" parent="1">
          <mxGeometry x="574" y="504" width="45" height="10" as="geometry" />
        </mxCell>
        <mxCell id="5ShauNuT3ry20VdbrwSz-39" value="&lt;font style=&quot;font-size: 14px&quot;&gt;I0.0&lt;/font&gt;" style="text;html=1;align=center;verticalAlign=middle;resizable=0;points=[];autosize=1;strokeColor=none;fillColor=none;" vertex="1" parent="1">
          <mxGeometry x="260" y="484" width="40" height="20" as="geometry" />
        </mxCell>
        <mxCell id="5ShauNuT3ry20VdbrwSz-40" value="&lt;span style=&quot;font-size: 14px&quot;&gt;I0.1&lt;/span&gt;" style="text;html=1;align=center;verticalAlign=middle;resizable=0;points=[];autosize=1;strokeColor=none;fillColor=none;" vertex="1" parent="1">
          <mxGeometry x="343" y="484" width="40" height="20" as="geometry" />
        </mxCell>
        <mxCell id="5ShauNuT3ry20VdbrwSz-41" value="&lt;font style=&quot;font-size: 14px&quot;&gt;I0.2&lt;/font&gt;" style="text;html=1;align=center;verticalAlign=middle;resizable=0;points=[];autosize=1;strokeColor=none;fillColor=none;" vertex="1" parent="1">
          <mxGeometry x="424" y="484" width="40" height="20" as="geometry" />
        </mxCell>
        <mxCell id="5ShauNuT3ry20VdbrwSz-42" value="&lt;font style=&quot;font-size: 14px&quot;&gt;I0.3&lt;/font&gt;" style="text;html=1;align=center;verticalAlign=middle;resizable=0;points=[];autosize=1;strokeColor=none;fillColor=none;" vertex="1" parent="1">
          <mxGeometry x="508" y="484" width="40" height="20" as="geometry" />
        </mxCell>
        <mxCell id="5ShauNuT3ry20VdbrwSz-43" value="&lt;font style=&quot;font-size: 14px&quot;&gt;I0.4&lt;/font&gt;" style="text;html=1;align=center;verticalAlign=middle;resizable=0;points=[];autosize=1;strokeColor=none;fillColor=none;" vertex="1" parent="1">
          <mxGeometry x="583" y="484" width="40" height="20" as="geometry" />
        </mxCell>
        <mxCell id="5ShauNuT3ry20VdbrwSz-60" value="" style="ellipse;whiteSpace=wrap;html=1;aspect=fixed;" vertex="1" parent="1">
          <mxGeometry x="246" y="494" width="10" height="10" as="geometry" />
        </mxCell>
        <mxCell id="5ShauNuT3ry20VdbrwSz-61" value="" style="ellipse;whiteSpace=wrap;html=1;aspect=fixed;" vertex="1" parent="1">
          <mxGeometry x="304" y="494" width="10" height="10" as="geometry" />
        </mxCell>
        <mxCell id="5ShauNuT3ry20VdbrwSz-64" value="" style="ellipse;whiteSpace=wrap;html=1;aspect=fixed;" vertex="1" parent="1">
          <mxGeometry x="327.5" y="494" width="10" height="10" as="geometry" />
        </mxCell>
        <mxCell id="5ShauNuT3ry20VdbrwSz-65" value="" style="ellipse;whiteSpace=wrap;html=1;aspect=fixed;" vertex="1" parent="1">
          <mxGeometry x="385.5" y="494" width="10" height="10" as="geometry" />
        </mxCell>
        <mxCell id="5ShauNuT3ry20VdbrwSz-66" value="" style="ellipse;whiteSpace=wrap;html=1;aspect=fixed;" vertex="1" parent="1">
          <mxGeometry x="406" y="494" width="10" height="10" as="geometry" />
        </mxCell>
        <mxCell id="5ShauNuT3ry20VdbrwSz-67" value="" style="ellipse;whiteSpace=wrap;html=1;aspect=fixed;" vertex="1" parent="1">
          <mxGeometry x="464" y="494" width="10" height="10" as="geometry" />
        </mxCell>
        <mxCell id="5ShauNuT3ry20VdbrwSz-68" value="" style="ellipse;whiteSpace=wrap;html=1;aspect=fixed;" vertex="1" parent="1">
          <mxGeometry x="488.5" y="494" width="10" height="10" as="geometry" />
        </mxCell>
        <mxCell id="5ShauNuT3ry20VdbrwSz-69" value="" style="ellipse;whiteSpace=wrap;html=1;aspect=fixed;" vertex="1" parent="1">
          <mxGeometry x="546.5" y="494" width="10" height="10" as="geometry" />
        </mxCell>
        <mxCell id="5ShauNuT3ry20VdbrwSz-70" value="" style="ellipse;whiteSpace=wrap;html=1;aspect=fixed;" vertex="1" parent="1">
          <mxGeometry x="566" y="494" width="10" height="10" as="geometry" />
        </mxCell>
        <mxCell id="5ShauNuT3ry20VdbrwSz-71" value="" style="ellipse;whiteSpace=wrap;html=1;aspect=fixed;" vertex="1" parent="1">
          <mxGeometry x="626" y="494" width="10" height="10" as="geometry" />
        </mxCell>
      </root>
    </mxGraphModel>
  </diagram>
</mxfile>
